<?xml version="1.0" encoding="iso-8859-1"?>
<!-- Generator: Adobe Illustrator 19.0.0, SVG Export Plug-In . SVG Version: 6.00 Build 0)  -->
<svg version="1.1" id="Capa_1" xmlns="http://www.w3.org/2000/svg" xmlns:xlink="http://www.w3.org/1999/xlink" x="0px" y="0px"
	 viewBox="0 0 512 512" style="enable-background:new 0 0 512 512;" xml:space="preserve">
<linearGradient id="SVGID_1_" gradientUnits="userSpaceOnUse" x1="0" y1="258.0001" x2="511.9995" y2="258.0001" gradientTransform="matrix(1 0 0 -1 0 513.9999)">
	<stop  offset="0" style="stop-color:#80D8FF"/>
	<stop  offset="0.16" style="stop-color:#88D1FF"/>
	<stop  offset="0.413" style="stop-color:#9FBEFE"/>
	<stop  offset="0.725" style="stop-color:#C4A0FD"/>
	<stop  offset="1" style="stop-color:#EA80FC"/>
</linearGradient>
<path style="fill:url(#SVGID_1_);" d="M506.329,351.267l-73.895-75.771c-7.713-7.907-20.375-8.066-28.283-0.354
	c-7.907,7.712-8.067,20.374-0.354,28.282l40.772,41.807h-98.217L264.173,256l82.178-89.23h98.217l-40.772,41.807
	c-7.712,7.908-7.553,20.57,0.354,28.282c7.912,7.715,20.574,7.55,28.283-0.354l73.895-75.771c7.584-7.77,7.54-20.193,0-27.928
	l-73.895-75.77c-7.713-7.907-20.375-8.066-28.283-0.354c-7.907,7.712-8.067,20.374-0.354,28.282l40.771,41.806H337.58
	c-5.59,0-10.925,2.34-14.712,6.451l-85.885,93.256l-87.011-94.479c-3.787-4.111-9.122-6.451-14.712-6.451H20
	c-11.046,0-20,8.954-20,20s8.954,20,20,20h106.488L209.793,256l-83.304,90.453H20c-11.046,0-20,8.954-20,20s8.954,20,20,20h115.26
	c5.59,0,10.925-2.34,14.712-6.451l87.011-94.479l85.885,93.256c3.787,4.111,9.122,6.451,14.712,6.451h106.988l-40.771,41.806
	c-7.712,7.908-7.553,20.57,0.354,28.282c7.911,7.714,20.574,7.55,28.283-0.354l73.895-75.77
	C514.009,371.315,513.724,358.844,506.329,351.267z"/>
<g>
</g>
<g>
</g>
<g>
</g>
<g>
</g>
<g>
</g>
<g>
</g>
<g>
</g>
<g>
</g>
<g>
</g>
<g>
</g>
<g>
</g>
<g>
</g>
<g>
</g>
<g>
</g>
<g>
</g>
</svg>
