<?xml version="1.0" encoding="iso-8859-1"?>
<!-- Generator: Adobe Illustrator 19.0.0, SVG Export Plug-In . SVG Version: 6.00 Build 0)  -->
<svg version="1.1" id="Capa_1" xmlns="http://www.w3.org/2000/svg" xmlns:xlink="http://www.w3.org/1999/xlink" x="0px" y="0px"
	 viewBox="0 0 512 512" style="enable-background:new 0 0 512 512;" xml:space="preserve">
<linearGradient id="SVGID_1_" gradientUnits="userSpaceOnUse" x1="0" y1="258" x2="512" y2="258" gradientTransform="matrix(1 0 0 -1 0 514)">
	<stop  offset="0" style="stop-color:#80D8FF"/>
	<stop  offset="0.16" style="stop-color:#88D1FF"/>
	<stop  offset="0.413" style="stop-color:#9FBEFE"/>
	<stop  offset="0.725" style="stop-color:#C4A0FD"/>
	<stop  offset="1" style="stop-color:#EA80FC"/>
</linearGradient>
<path style="fill:url(#SVGID_1_);" d="M492,276H172c-11.046,0-20-8.954-20-20s8.954-20,20-20h320c11.046,0,20,8.954,20,20
	C512,267.046,503.046,276,492,276z M512,106c0-11.046-8.954-20-20-20H172c-11.046,0-20,8.954-20,20s8.954,20,20,20h320
	C503.046,126,512,117.046,512,106z M512,406c0-11.046-8.954-20-20-20H172c-11.046,0-20,8.954-20,20s8.954,20,20,20h320
	C503.046,426,512,417.046,512,406z M100,286v-60c0-11.046-8.954-20-20-20H20c-11.046,0-20,8.954-20,20v60c0,11.046,8.954,20,20,20
	h60C91.046,306,100,297.046,100,286z M40,246h20v20H40V246z M100,136V76c0-11.046-8.954-20-20-20H20C8.954,56,0,64.954,0,76v60
	c0,11.046,8.954,20,20,20h60C91.046,156,100,147.046,100,136z M40,96h20v20H40V96z M100,436v-60c0-11.046-8.954-20-20-20H20
	c-11.046,0-20,8.954-20,20v60c0,11.046,8.954,20,20,20h60C91.046,456,100,447.046,100,436z M40,396h20v20H40V396z"/>
<g>
</g>
<g>
</g>
<g>
</g>
<g>
</g>
<g>
</g>
<g>
</g>
<g>
</g>
<g>
</g>
<g>
</g>
<g>
</g>
<g>
</g>
<g>
</g>
<g>
</g>
<g>
</g>
<g>
</g>
</svg>
