<?xml version="1.0" encoding="iso-8859-1"?>
<!-- Generator: Adobe Illustrator 19.0.0, SVG Export Plug-In . SVG Version: 6.00 Build 0)  -->
<svg version="1.1" id="Capa_1" xmlns="http://www.w3.org/2000/svg" xmlns:xlink="http://www.w3.org/1999/xlink" x="0px" y="0px"
	 viewBox="0 0 512 512" style="enable-background:new 0 0 512 512;" xml:space="preserve">
<linearGradient id="SVGID_1_" gradientUnits="userSpaceOnUse" x1="1.525879e-005" y1="258" x2="512" y2="258" gradientTransform="matrix(1 0 0 -1 0 514)">
	<stop  offset="0" style="stop-color:#80D8FF"/>
	<stop  offset="0.16" style="stop-color:#88D1FF"/>
	<stop  offset="0.413" style="stop-color:#9FBEFE"/>
	<stop  offset="0.725" style="stop-color:#C4A0FD"/>
	<stop  offset="1" style="stop-color:#EA80FC"/>
</linearGradient>
<path style="fill:url(#SVGID_1_);" d="M462.622,512H49.378C22.151,512,0,489.85,0,462.623v-118.49c0-11.046,8.954-20,20-20
	s20,8.954,20,20v118.49c0,5.171,4.207,9.377,9.378,9.377h413.244c5.171,0,9.378-4.207,9.378-9.377v-118.49c0-11.046,8.954-20,20-20
	c11.046,0,20,8.954,20,20v118.49C512,489.85,489.849,512,462.622,512z M334.755,411.701v-216h68.133
	c7.983,0,15.202-4.748,18.364-12.078c3.162-7.33,1.662-15.839-3.816-21.646L270.548,6.275C266.77,2.271,261.507,0,256,0
	c-5.507,0-10.77,2.271-14.548,6.275L94.564,161.977c-5.479,5.807-6.979,14.316-3.816,21.646s10.381,12.078,18.364,12.078h68.133v216
	c0,11.046,8.954,20,20,20h117.51C325.801,431.701,334.755,422.747,334.755,411.701z M217.245,175.701c0-11.046-8.954-20-20-20
	h-41.77L256,49.145l100.524,106.556h-41.77c-11.046,0-20,8.954-20,20v216h-77.51v-216H217.245z"/>
<g>
</g>
<g>
</g>
<g>
</g>
<g>
</g>
<g>
</g>
<g>
</g>
<g>
</g>
<g>
</g>
<g>
</g>
<g>
</g>
<g>
</g>
<g>
</g>
<g>
</g>
<g>
</g>
<g>
</g>
</svg>
