<?xml version="1.0" encoding="iso-8859-1"?>
<!-- Generator: Adobe Illustrator 19.0.0, SVG Export Plug-In . SVG Version: 6.00 Build 0)  -->
<svg version="1.1" id="Capa_1" xmlns="http://www.w3.org/2000/svg" xmlns:xlink="http://www.w3.org/1999/xlink" x="0px" y="0px"
	 viewBox="0 0 512 512" style="enable-background:new 0 0 512 512;" xml:space="preserve">
<linearGradient id="SVGID_1_" gradientUnits="userSpaceOnUse" x1="0" y1="258" x2="512" y2="258" gradientTransform="matrix(1 0 0 -1 0 514)">
	<stop  offset="0" style="stop-color:#80D8FF"/>
	<stop  offset="0.16" style="stop-color:#88D1FF"/>
	<stop  offset="0.413" style="stop-color:#9FBEFE"/>
	<stop  offset="0.725" style="stop-color:#C4A0FD"/>
	<stop  offset="1" style="stop-color:#EA80FC"/>
</linearGradient>
<path style="fill:url(#SVGID_1_);" d="M167,512H50c-27.57,0-50-22.43-50-50V50C0,22.43,22.43,0,50,0h117c27.57,0,50,22.43,50,50v412
	C217,489.57,194.57,512,167,512z M50,40c-5.514,0-10,4.486-10,10v412c0,5.514,4.486,10,10,10h117c5.514,0,10-4.486,10-10V50
	c0-5.514-4.486-10-10-10H50z M462,512H345c-27.57,0-50-22.43-50-50V50c0-27.57,22.43-50,50-50h117c27.57,0,50,22.43,50,50v412
	C512,489.57,489.57,512,462,512z M345,40c-5.514,0-10,4.486-10,10v412c0,5.514,4.486,10,10,10h117c5.514,0,10-4.486,10-10V50
	c0-5.514-4.486-10-10-10H345z"/>
<g>
</g>
<g>
</g>
<g>
</g>
<g>
</g>
<g>
</g>
<g>
</g>
<g>
</g>
<g>
</g>
<g>
</g>
<g>
</g>
<g>
</g>
<g>
</g>
<g>
</g>
<g>
</g>
<g>
</g>
</svg>
