<?xml version="1.0" encoding="iso-8859-1"?>
<!-- Generator: Adobe Illustrator 19.0.0, SVG Export Plug-In . SVG Version: 6.00 Build 0)  -->
<svg version="1.1" id="Capa_1" xmlns="http://www.w3.org/2000/svg" xmlns:xlink="http://www.w3.org/1999/xlink" x="0px" y="0px"
	 viewBox="0 0 512 512" style="enable-background:new 0 0 512 512;" xml:space="preserve">
<linearGradient id="SVGID_1_" gradientUnits="userSpaceOnUse" x1="132.0003" y1="258.0006" x2="380.0001" y2="258.0006" gradientTransform="matrix(1 0 0 -1 0 514.0007)">
	<stop  offset="0" style="stop-color:#80D8FF"/>
	<stop  offset="0.16" style="stop-color:#88D1FF"/>
	<stop  offset="0.413" style="stop-color:#9FBEFE"/>
	<stop  offset="0.725" style="stop-color:#C4A0FD"/>
	<stop  offset="1" style="stop-color:#EA80FC"/>
</linearGradient>
<path style="fill:url(#SVGID_1_);" d="M241.843,5.866c-0.006,0.006-0.013,0.011-0.019,0.018l-104,104.504
	c-7.791,7.829-7.762,20.493,0.068,28.285c7.829,7.792,20.492,7.762,28.284-0.067L236,68.442V492c0,11.046,8.954,20,20,20
	c11.046,0,20-8.954,20-20V68.442l69.824,70.162c7.792,7.829,20.455,7.859,28.284,0.067c7.831-7.793,7.858-20.457,0.068-28.285
	l-104-104.504c-0.006-0.006-0.013-0.011-0.019-0.018C262.339-1.968,249.635-1.943,241.843,5.866z"/>
<g>
</g>
<g>
</g>
<g>
</g>
<g>
</g>
<g>
</g>
<g>
</g>
<g>
</g>
<g>
</g>
<g>
</g>
<g>
</g>
<g>
</g>
<g>
</g>
<g>
</g>
<g>
</g>
<g>
</g>
</svg>
