<svg width="28" height="31" viewBox="0 0 28 31" fill="none" xmlns="http://www.w3.org/2000/svg">
<g filter="url(#filter0_d)">
<path fill-rule="evenodd" clip-rule="evenodd" d="M11.6466 5.17217C11.3631 5.17217 11.1335 4.93339 11.1335 4.65484C11.1335 4.37629 11.3631 4.13753 11.6466 4.13753C11.9436 4.13753 12.1731 4.37629 12.1731 4.65484C12.1731 4.93339 11.9436 5.17217 11.6466 5.17217ZM17.3439 5.17217C17.0469 5.17217 16.8174 4.93339 16.8174 4.65484C16.8174 4.37629 17.0469 4.13753 17.3439 4.13753C17.6274 4.13753 17.8569 4.37629 17.8569 4.65484C17.8569 4.93339 17.6274 5.17217 17.3439 5.17217ZM6.3813 7.61293C5.61173 7.61293 4.99072 8.22316 4.99072 8.9659V14.6698C4.99072 15.426 5.61173 16.0362 6.3813 16.0362C7.15079 16.0362 7.75834 15.426 7.75834 14.6698V8.9659C7.75834 8.22316 7.13734 7.61293 6.3813 7.61293ZM20.6921 7.86492H8.29839V16.6995C8.29839 17.5086 8.95996 18.1586 9.78348 18.1586H10.7825L10.796 21.1698C10.796 21.9259 11.4171 22.5362 12.1731 22.5362C12.9426 22.5362 13.5637 21.9259 13.5637 21.1698V18.1586H15.4268V21.1698C15.4268 21.9259 16.0478 22.5362 16.8174 22.5362C17.5869 22.5362 18.208 21.9259 18.208 21.1698V18.1586H19.2205C20.0306 18.1586 20.6921 17.5086 20.6921 16.6995V7.86492ZM17.5599 2.49263L18.5185 0.754861C18.5725 0.662112 18.5455 0.542656 18.451 0.489668C18.3564 0.449732 18.2349 0.476314 18.181 0.569213L17.2089 2.32019C16.3853 1.96195 15.4673 1.7631 14.4952 1.7631C13.5232 1.7631 12.6051 1.96195 11.7816 2.32019L10.8095 0.569213C10.7555 0.476314 10.634 0.449732 10.5395 0.489668C10.445 0.542656 10.418 0.662112 10.472 0.754861L11.4305 2.49263C9.52699 3.44775 8.24442 5.27828 8.24442 7.38734H20.7326C20.7326 5.27828 19.45 3.44775 17.5599 2.49263ZM23.9998 8.9659C23.9998 8.20981 23.3787 7.61293 22.6092 7.61293C21.8532 7.61293 21.2321 8.20981 21.2321 8.9659V14.6698C21.2321 15.426 21.8532 16.0362 22.6092 16.0362C23.3787 16.0362 23.9998 15.426 23.9998 14.6698V8.9659Z" fill="white"/>
</g>
<defs>
<filter id="filter0_d" x="0" y="0" width="28" height="31" filterUnits="userSpaceOnUse" color-interpolation-filters="sRGB">
<feFlood flood-opacity="0" result="BackgroundImageFix"/>
<feColorMatrix in="SourceAlpha" type="matrix" values="0 0 0 0 0 0 0 0 0 0 0 0 0 0 0 0 0 0 127 0"/>
<feOffset dy="4"/>
<feGaussianBlur stdDeviation="2"/>
<feColorMatrix type="matrix" values="0 0 0 0 0 0 0 0 0 0 0 0 0 0 0 0 0 0 0.25 0"/>
<feBlend mode="normal" in2="BackgroundImageFix" result="effect1_dropShadow"/>
<feBlend mode="normal" in="SourceGraphic" in2="effect1_dropShadow" result="shape"/>
</filter>
</defs>
</svg>
